<?xml version="1.0" encoding="utf-8"?>
<!-- Generator: Adobe Illustrator 25.2.1, SVG Export Plug-In . SVG Version: 6.00 Build 0)  -->
<svg version="1.1" id="Camada_1" xmlns="http://www.w3.org/2000/svg" xmlns:xlink="http://www.w3.org/1999/xlink" x="0px" y="0px"
	 viewBox="0 0 113.1 88" style="enable-background:new 0 0 113.1 88;" xml:space="preserve">
<g>
	<g transform="translate(0.0000045, 215.970085)">
		<g>
			<path d="M38.3-216v35.1c-2.6-6.2-8.9-10-15.2-10H12.5c-7,0-12.5,5.6-12.5,12.6v37.6c0,7,5.5,12.5,12.5,12.5H23
				c6.8,0,12.8-4.3,15.2-10.3v10.3h10.9V-216H38.3z M16.4-180.4h10c6.5,0,11.8,5.3,11.8,11.8v17.5c0,6.5-5.3,12.5-11.8,12.5h-10
				c-2.9,0-5.4-2.6-5.4-5.5v-30.8C10.9-177.8,13.4-180.4,16.4-180.4z"/>
		</g>
	</g>
</g>
<path d="M91.7,77.3H72.6c-1.3,0-2.4-0.6-3.4-1.7c-1-1.1-1.5-2.4-1.5-4V61h38.4V36.5l0-9.6H58.1v48.3c0,3.6,1.1,6.7,3.2,9.2
	c2.1,2.5,4.8,3.7,7.9,3.7h25.9c8.3,0.1,11.3-3.7,11.1-9.9h0v-3.5h-9.7C96.5,77.3,96.5,77.3,91.7,77.3z M67.8,34.3h28.7v16.4H67.8
	V34.3z"/>
<path d="M112.3,18.1c-0.3-0.5-0.8-0.7-1.3-0.8H94.8c-0.2-0.6-0.5-1.2-0.9-1.8c-2-3.1-5.4-4.9-9.1-5.1c-0.7,0-1.4,0-2.1,0l-1.9,0.1
	l-0.1,0c-0.3,0-0.7,0-1,0c-3.6,0.2-7.1,2.1-9.1,5.1c-0.4,0.6-0.7,1.2-0.9,1.8H53.6c-0.5,0.1-0.9,0.3-1.3,0.8c-1,1.4-1,2.4-0.7,3.4
	c0.3,0.7,0.8,1.3,1.5,1.7c0.1,0,0.1,0.1,0.2,0.1c0.3,0.2,0.7,0.3,1.1,0.3h54.9c0.1,0,0.3,0,0.4,0c0.6,0,1.1-0.1,1.5-0.3
	c0.1-0.1,0.2-0.1,0.3-0.2c0.6-0.4,1.2-0.9,1.4-1.6C113.3,20.5,113.2,19.4,112.3,18.1z M73.7,17.3c-0.1-0.7-0.1-1.5,0.1-2.3
	c1-1.4,2.8-1.8,4.7-2c0.6,0,1.4-0.1,2.2-0.1H81c1,0,1.9-0.1,2.8-0.1c0.8,0,1.6,0,2.2,0.1c1.9,0.2,3.7,0.6,4.8,2
	c0.2,0.8,0.3,1.5,0.1,2.3l-8.7,0.1h-0.3H73.7z"/>
</svg>
